<?xml version="1.0" encoding="UTF-8"?>
<svg xmlns="http://www.w3.org/2000/svg" xmlns:xlink="http://www.w3.org/1999/xlink" width="97px" height="97px" viewBox="0 0 97 97" version="1.1">
<g id="surface1">
<path style=" stroke:none;fill-rule:nonzero;fill:rgb(94.117647%,31.764706%,20%);fill-opacity:1;" d="M 92.710938 44.40625 L 52.589844 4.289062 C 50.28125 1.980469 46.535156 1.980469 44.222656 4.289062 L 35.890625 12.621094 L 46.460938 23.191406 C 48.914062 22.359375 51.730469 22.917969 53.6875 24.875 C 55.65625 26.84375 56.210938 29.683594 55.359375 32.148438 L 65.542969 42.335938 C 68.007812 41.484375 70.851562 42.035156 72.820312 44.007812 C 75.570312 46.757812 75.570312 51.210938 72.820312 53.964844 C 70.066406 56.714844 65.609375 56.714844 62.859375 53.964844 C 60.789062 51.894531 60.277344 48.855469 61.328125 46.304688 L 51.828125 36.808594 L 51.828125 61.804688 C 52.496094 62.136719 53.128906 62.578125 53.6875 63.136719 C 56.4375 65.886719 56.4375 70.34375 53.6875 73.09375 C 50.9375 75.84375 46.480469 75.84375 43.730469 73.09375 C 40.980469 70.339844 40.980469 65.886719 43.730469 63.136719 C 44.410156 62.457031 45.199219 61.941406 46.039062 61.597656 L 46.039062 36.367188 C 45.199219 36.023438 44.414062 35.515625 43.730469 34.832031 C 41.648438 32.75 41.148438 29.691406 42.214844 27.132812 L 31.796875 16.714844 L 4.289062 44.222656 C 1.976562 46.535156 1.976562 50.28125 4.289062 52.59375 L 44.410156 92.710938 C 46.71875 95.023438 50.464844 95.023438 52.777344 92.710938 L 92.710938 52.777344 C 95.019531 50.46875 95.019531 46.71875 92.710938 44.40625 Z M 92.710938 44.40625 "/>
</g>
</svg>
