<?xml version="1.0" encoding="UTF-8"?>
<svg xmlns="http://www.w3.org/2000/svg" xmlns:xlink="http://www.w3.org/1999/xlink" width="123px" height="135px" viewBox="0 0 123 134" version="1.1">
<defs>
<linearGradient id="linear0" gradientUnits="userSpaceOnUse" x1="26.648937" y1="20.603781" x2="135.66525" y2="114.39767" gradientTransform="matrix(0.601674,0,0,0.604034,-16.033981,-12.445379)">
<stop offset="0" style="stop-color:rgb(35.294118%,62.352941%,83.137255%);stop-opacity:1;"/>
<stop offset="1" style="stop-color:rgb(18.823529%,41.176471%,59.607843%);stop-opacity:1;"/>
</linearGradient>
<linearGradient id="linear1" gradientUnits="userSpaceOnUse" x1="150.96111" y1="192.35176" x2="112.03144" y2="137.27299" gradientTransform="matrix(0.601674,0,0,0.604034,-16.033981,-12.445379)">
<stop offset="0" style="stop-color:rgb(100%,83.137255%,23.137255%);stop-opacity:1;"/>
<stop offset="1" style="stop-color:rgb(100%,90.980392%,45.098039%);stop-opacity:1;"/>
</linearGradient>
<filter id="alpha" filterUnits="objectBoundingBox" x="0%" y="0%" width="100%" height="100%">
  <feColorMatrix type="matrix" in="SourceGraphic" values="0 0 0 0 1 0 0 0 0 1 0 0 0 0 1 0 0 0 1 0"/>
</filter>
<mask id="mask0">
  <g filter="url(#alpha)">
<rect x="0" y="0" width="123" height="134" style="fill:rgb(0%,0%,0%);fill-opacity:0.443137;stroke:none;"/>
  </g>
</mask>
<radialGradient id="radial0" gradientUnits="userSpaceOnUse" cx="61.518883" cy="132.28575" fx="61.518883" fy="132.28575" r="29.036913" gradientTransform="matrix(0.0000000187073,-0.255182,1.128036,0.000000403228,-89.523464,151.507217)">
<stop offset="0" style="stop-color:rgb(72.156863%,72.156863%,72.156863%);stop-opacity:0.498039;"/>
<stop offset="1" style="stop-color:rgb(49.803922%,49.803922%,49.803922%);stop-opacity:0;"/>
</radialGradient>
<clipPath id="clip1">
  <rect x="0" y="0" width="123" height="134"/>
</clipPath>
<g id="surface5" clip-path="url(#clip1)">
<path style=" stroke:none;fill-rule:nonzero;fill:url(#radial0);" d="M 98.128906 135.808594 C 98.128906 131.714844 80.925781 128.398438 59.699219 128.398438 C 38.476562 128.398438 21.269531 131.714844 21.269531 135.808594 C 21.269531 139.902344 38.476562 143.21875 59.699219 143.21875 C 80.925781 143.21875 98.128906 139.902344 98.128906 135.808594 Z M 98.128906 135.808594 "/>
</g>
</defs>
<g id="surface1">
<path style=" stroke:none;fill-rule:nonzero;fill:url(#linear0);" d="M 58.738281 0 C 53.835938 0.0234375 49.15625 0.4375 45.035156 1.164062 C 32.898438 3.296875 30.695312 7.757812 30.695312 15.988281 L 30.695312 26.855469 L 59.375 26.855469 L 59.375 30.476562 L 19.933594 30.476562 C 11.597656 30.476562 4.300781 35.457031 2.019531 44.933594 C -0.613281 55.796875 -0.730469 62.574219 2.019531 73.914062 C 4.058594 82.355469 8.925781 88.371094 17.261719 88.371094 L 27.121094 88.371094 L 27.121094 75.34375 C 27.121094 65.929688 35.308594 57.628906 45.035156 57.628906 L 73.679688 57.628906 C 81.652344 57.628906 88.019531 51.101562 88.019531 43.140625 L 88.019531 15.988281 C 88.019531 8.257812 81.460938 2.453125 73.679688 1.164062 C 68.753906 0.347656 63.640625 -0.0234375 58.738281 0 Z M 43.230469 8.742188 C 46.191406 8.742188 48.613281 11.1875 48.613281 14.191406 C 48.613281 17.1875 46.191406 19.609375 43.230469 19.609375 C 40.257812 19.609375 37.847656 17.1875 37.847656 14.191406 C 37.847656 11.1875 40.257812 8.742188 43.230469 8.742188 Z M 43.230469 8.742188 "/>
<path style=" stroke:none;fill-rule:nonzero;fill:url(#linear1);" d="M 91.59375 30.476562 L 91.59375 43.140625 C 91.59375 52.957031 83.226562 61.21875 73.679688 61.21875 L 45.035156 61.21875 C 37.1875 61.21875 30.695312 67.894531 30.695312 75.707031 L 30.695312 102.859375 C 30.695312 110.589844 37.453125 115.132812 45.035156 117.351562 C 54.113281 120.003906 62.816406 120.484375 73.679688 117.351562 C 80.898438 115.273438 88.019531 111.089844 88.019531 102.859375 L 88.019531 91.992188 L 59.375 91.992188 L 59.375 88.371094 L 102.359375 88.371094 C 110.691406 88.371094 113.796875 82.589844 116.695312 73.914062 C 119.691406 64.980469 119.5625 56.390625 116.695312 44.933594 C 114.636719 36.683594 110.703125 30.476562 102.359375 30.476562 Z M 75.484375 99.238281 C 78.457031 99.238281 80.867188 101.660156 80.867188 104.65625 C 80.867188 107.660156 78.457031 110.105469 75.484375 110.105469 C 72.523438 110.105469 70.101562 107.660156 70.101562 104.65625 C 70.101562 101.660156 72.523438 99.238281 75.484375 99.238281 Z M 75.484375 99.238281 "/>
<use xlink:href="#surface5" mask="url(#mask0)"/>
</g>
</svg>
